<?xml version="1.0" encoding="UTF-8" standalone="no"?>
<svg
   xmlns:dc="http://purl.org/dc/elements/1.1/"
   xmlns:cc="http://creativecommons.org/ns#"
   xmlns:rdf="http://www.w3.org/1999/02/22-rdf-syntax-ns#"
   xmlns:svg="http://www.w3.org/2000/svg"
   xmlns="http://www.w3.org/2000/svg"
   xmlns:sodipodi="http://sodipodi.sourceforge.net/DTD/sodipodi-0.dtd"
   xmlns:inkscape="http://www.inkscape.org/namespaces/inkscape"
   width="210mm"
   height="297mm"
   viewBox="0 0 210 297"
   version="1.1"
   id="svg8"
   inkscape:version="1.0 (4035a4f, 2020-05-01)"
   sodipodi:docname="logo.svg">
  <defs
     id="defs2">
    <rect
       x="-160.2619"
       y="-80.886905"
       width="220.7381"
       height="116.41667"
       id="rect12" />
  </defs>
  <sodipodi:namedview
     id="base"
     pagecolor="#ffffff"
     bordercolor="#666666"
     borderopacity="1.0"
     inkscape:pageopacity="0.0"
     inkscape:pageshadow="2"
     inkscape:zoom="0.35"
     inkscape:cx="153"
     inkscape:cy="560"
     inkscape:document-units="mm"
     inkscape:current-layer="layer1"
     inkscape:document-rotation="0"
     showgrid="false"
     showborder="false"
     inkscape:window-width="1252"
     inkscape:window-height="943"
     inkscape:window-x="2240"
     inkscape:window-y="1871"
     inkscape:window-maximized="0" />
  <metadata
     id="metadata5">
    <rdf:RDF>
      <cc:Work
         rdf:about="">
        <dc:format>image/svg+xml</dc:format>
        <dc:type
           rdf:resource="http://purl.org/dc/dcmitype/StillImage" />
        <dc:title></dc:title>
      </cc:Work>
    </rdf:RDF>
  </metadata>
  <g
     inkscape:label="Layer 1"
     inkscape:groupmode="layer"
     id="layer1">
    <text
       xml:space="preserve"
       id="text10"
       style="font-size:10.58329999999999949px;line-height:1.25;font-family:Zapfino;-inkscape-font-specification:Zapfino;white-space:pre;shape-inside:url(#rect12);" />
    <path
       id="path26"
       style="font-size:24.6128px;line-height:1.25;font-family:Zapfino;-inkscape-font-specification:Zapfino;stroke-width:0.999999"
       d="M 331.16797 -90.496094 C 327.0907 -90.496094 322.80179 -88.956387 318.30273 -85.878906 C 313.94427 -82.972397 309.51469 -78.955306 305.01562 -73.826172 C 300.51657 -68.868009 296.08893 -63.054597 291.73047 -56.386719 C 287.372 -49.889814 283.29413 -43.136769 279.49805 -36.126953 C 272.46827 -23.304117 265.64901 -10.139533 259.04102 3.3671875 C 252.57361 16.702937 245.8247 31.235498 238.79492 46.964844 C 237.24837 46.964844 235.42143 47.049742 233.3125 47.220703 C 231.20357 47.391684 229.02492 47.563414 226.77539 47.734375 C 224.66646 47.905348 222.62654 48.161965 220.6582 48.503906 C 218.83046 48.845848 217.35523 49.187353 216.23047 49.529297 C 214.54332 50.21318 212.71443 52.009506 210.74609 54.916016 C 208.77775 57.651555 206.81013 61.840373 204.8418 67.482422 L 205.47461 67.738281 C 207.02116 63.976916 208.35766 61.071185 209.48242 59.019531 C 210.74778 56.796907 212.43403 55.172314 214.54297 54.146484 C 216.6519 52.949687 219.46363 52.094943 222.97852 51.582031 C 226.49341 51.069117 231.2747 50.555881 237.32031 50.042969 C 233.94602 57.052785 230.14951 65.258698 225.93164 74.662109 C 221.85437 84.065524 217.42478 93.81114 212.64453 103.89844 C 208.00487 114.15671 203.22553 124.41556 198.30469 134.67383 C 193.24324 145.10307 188.18058 154.84868 183.11914 163.91016 C 173.55864 181.00727 164.34971 195.11149 155.49219 206.22461 C 146.49407 217.50871 137.91822 226.48447 129.76367 233.15234 C 121.60913 239.82022 113.87738 244.43738 106.56641 247.00195 C 99.114841 249.7375 92.225241 251.19037 85.898438 251.36133 C 81.96176 251.36133 78.587304 250.67636 75.775391 249.30859 C 72.96348 248.1118 70.644151 246.57404 68.816406 244.69336 C 66.848069 242.81268 65.370888 240.84658 64.386719 238.79492 C 63.402552 236.91424 62.839817 235.37453 62.699219 234.17773 C 62.418027 233.32287 62.136661 232.81159 61.855469 232.64062 C 61.574277 232.46965 61.433594 233.06778 61.433594 234.43555 C 62.277169 239.05177 63.543323 242.72735 65.230469 245.46289 C 66.917617 248.3694 68.885236 250.59212 71.134766 252.13086 C 73.243699 253.6696 75.49464 254.69607 77.884766 255.20898 C 80.134295 255.7219 82.242597 255.97656 84.210938 255.97656 C 90.959526 255.97656 98.130492 254.35392 105.72266 251.10547 C 113.17423 248.02799 121.18734 242.89758 129.76367 235.7168 C 138.34 228.70698 147.40825 219.4746 156.96875 208.01953 C 166.38866 196.73544 176.37135 182.88784 186.91602 166.47461 C 191.13388 159.80674 195.70415 152.02722 200.625 143.13672 C 205.68644 134.41719 210.74715 124.92819 215.80859 114.66992 C 221.01063 104.41165 226.14169 93.811294 231.20312 82.869141 C 236.40516 71.756017 241.32714 60.729262 245.9668 49.787109 L 254.82422 49.787109 C 258.19851 49.616149 261.43229 49.529297 264.52539 49.529297 C 267.61849 49.358336 270.28953 49.273438 272.53906 49.273438 L 276.75586 49.273438 C 277.03705 48.076638 276.82603 47.221897 276.12305 46.708984 L 270.85156 46.708984 L 262.41602 46.708984 C 259.32291 46.708984 256.30017 46.793883 253.34766 46.964844 L 247.02148 46.964844 C 249.97399 39.784056 253.20776 32.091381 256.72266 23.884766 C 260.23755 15.507179 263.75073 7.3861573 267.26562 -0.47851562 C 270.78052 -8.5141594 274.08463 -16.037058 277.17773 -23.046875 C 280.27084 -30.056692 282.87349 -35.78522 284.98242 -40.230469 C 288.7785 -48.095142 292.43238 -54.591567 295.94727 -59.720703 C 299.60275 -64.849837 303.04755 -68.953767 306.28125 -72.03125 C 309.65554 -75.10873 312.88932 -77.244609 315.98242 -78.441406 C 319.21612 -79.638204 322.30921 -80.238281 325.26172 -80.238281 C 329.47959 -80.238281 332.71336 -79.296698 334.96289 -77.416016 C 337.35302 -75.535333 338.54883 -72.886219 338.54883 -69.466797 C 338.54883 -68.44097 338.47849 -67.414499 338.33789 -66.388672 C 338.33789 -65.362845 338.19721 -64.166599 337.91602 -62.798828 C 338.19721 -62.456887 338.47857 -62.285156 338.75977 -62.285156 C 339.18155 -62.285156 339.53326 -62.456887 339.81445 -62.798828 C 339.81445 -63.824655 339.88479 -65.362409 340.02539 -67.414062 C 340.30658 -69.465719 340.5176 -71.518659 340.6582 -73.570312 C 340.93939 -75.621966 341.14846 -77.501228 341.28906 -79.210938 C 341.57025 -80.92065 341.71094 -82.118849 341.71094 -82.802734 C 341.71094 -84.854388 340.65776 -86.648761 338.54883 -88.1875 C 336.43989 -89.726241 333.97988 -90.496094 331.16797 -90.496094 z M -87.501953 -87.673828 C -95.375306 -87.673828 -103.24969 -84.169973 -111.12305 -77.160156 C -118.8558 -70.32131 -126.51721 -61.430437 -134.10938 -50.488281 C -141.70154 -39.546129 -149.15387 -27.408015 -156.46484 -14.072266 C -163.63522 -0.73651608 -170.59516 12.343179 -177.34375 25.166016 C -183.10817 36.279139 -188.80196 47.649352 -194.42578 59.275391 C -200.04961 70.730458 -205.81373 82.955412 -211.71875 95.949219 C -212.14054 96.975046 -212.35156 97.914675 -212.35156 98.769531 C -212.35156 99.966329 -211.78883 100.73618 -210.66406 101.07812 C -209.5393 101.59104 -208.62485 101.84766 -207.92188 101.84766 C -206.93771 101.84766 -205.88453 100.47968 -204.75977 97.744141 C -203.21321 94.153746 -201.38432 90.049813 -199.27539 85.433594 C -197.16646 80.817372 -195.1285 76.371934 -193.16016 72.097656 C -188.23931 64.062013 -184.16143 58.592056 -180.92773 55.685547 C -177.55344 52.779037 -175.23411 51.324219 -173.96875 51.324219 C -173.54696 51.324219 -173.33594 51.752566 -173.33594 52.607422 C -173.33594 54.146161 -174.1097 56.795275 -175.65625 60.556641 C -177.2028 64.147036 -178.95939 68.16608 -180.92773 72.611328 C -182.75548 76.885606 -184.44368 81.159313 -185.99023 85.433594 C -187.53679 89.707872 -188.30859 93.21368 -188.30859 95.949219 C -188.30859 98.855728 -187.60713 101.07845 -186.20117 102.61719 C -184.79522 104.3269 -182.89598 105.18164 -180.50586 105.18164 C -177.41275 105.18164 -174.0383 103.98344 -170.38281 101.58984 C -166.58673 99.367217 -162.86252 96.376598 -159.20703 92.615234 C -155.75418 89.193957 -152.42334 85.400021 -149.20312 81.271484 C -150.3211 84.330421 -151.17428 86.873894 -151.69336 88.767578 C -152.11515 90.819232 -152.32617 92.528716 -152.32617 93.896484 C -152.32617 96.290082 -151.83378 98.086406 -150.84961 99.283203 C -149.86544 100.30903 -148.59928 100.82031 -147.05273 100.82031 C -145.08439 100.82031 -143.3278 100.39392 -141.78125 99.539062 C -140.0941 98.513236 -138.61692 97.316987 -137.35156 95.949219 C -135.94561 94.410477 -134.75175 92.87077 -133.76758 91.332031 C -132.64281 89.622319 -131.65803 88.169454 -130.81445 86.972656 C -131.65803 89.366251 -132.2911 91.588971 -132.71289 93.640625 C -132.99408 95.521308 -133.13477 97.23079 -133.13477 98.769531 C -133.13477 102.01798 -132.50169 104.41243 -131.23633 105.95117 C -129.83037 107.48991 -127.93309 108.25781 -125.54297 108.25781 C -122.30927 108.25781 -118.86447 106.97668 -115.20898 104.41211 C -111.5535 102.01851 -107.96802 98.941053 -104.45312 95.179688 C -102.31786 92.894687 -100.24048 90.467075 -98.208984 87.929688 C -99.023034 89.662054 -99.836341 91.394587 -100.65039 93.126953 C -101.63456 95.178607 -102.12695 96.718314 -102.12695 97.744141 C -102.12695 98.257055 -101.7049 99.024954 -100.86133 100.05078 C -99.877157 101.07661 -99.24408 101.58984 -98.962891 101.58984 C -98.259914 101.58984 -97.837864 101.33323 -97.697266 100.82031 C -95.728928 97.058947 -93.901992 93.383361 -92.214844 89.792969 C -90.527698 86.031603 -88.769151 82.440909 -86.941406 79.021484 C -85.113665 75.431092 -83.216387 72.012123 -81.248047 68.763672 C -79.139113 65.515218 -76.749442 62.522648 -74.078125 59.787109 C -72.390979 57.906429 -70.421404 56.196945 -68.171875 54.658203 C -65.922343 53.119462 -63.884382 52.351562 -62.056641 52.351562 C -60.510088 52.351562 -59.314276 52.608179 -58.470703 53.121094 C -57.62713 53.634006 -56.996006 54.23213 -56.574219 54.916016 C -56.011835 55.42893 -55.589783 55.942166 -55.308594 56.455078 C -55.027404 56.967993 -54.81638 57.222656 -54.675781 57.222656 C -54.253999 57.222656 -53.97263 56.967993 -53.832031 56.455078 C -53.550839 55.600222 -52.988107 54.317131 -52.144531 52.607422 C -51.160362 50.89771 -50.245917 49.444844 -49.402344 48.248047 C -49.402346 47.393191 -49.894737 46.623338 -50.878906 45.939453 C -51.722482 45.084597 -52.777608 44.65625 -54.042969 44.65625 C -55.730115 44.65625 -57.697736 45.256328 -59.947266 46.453125 C -62.056202 47.649925 -64.236799 49.187677 -66.486328 51.068359 C -68.735858 52.778069 -70.914504 54.659284 -73.023438 56.710938 C -74.991775 58.762591 -76.678028 60.643803 -78.083984 62.353516 C -78.505772 62.86643 -78.85748 63.121094 -79.138672 63.121094 C -79.419859 63.121094 -79.34952 62.6947 -78.927734 61.839844 C -78.646543 61.326929 -78.224493 60.472188 -77.662109 59.275391 C -77.099728 58.078593 -76.538946 56.882344 -75.976562 55.685547 C -75.273585 54.317776 -74.71085 53.034688 -74.289062 51.837891 C -73.726681 50.641093 -73.445312 49.786352 -73.445312 49.273438 C -73.445312 47.734699 -74.008048 46.53845 -75.132812 45.683594 C -76.257577 44.828738 -76.959043 44.400391 -77.240234 44.400391 C -77.521424 44.400391 -78.013817 45.170243 -78.716797 46.708984 C -79.279178 48.247723 -80.334307 50.640221 -81.880859 53.888672 C -83.427412 56.966155 -85.254348 60.643691 -87.363281 64.917969 C -89.331619 69.192247 -91.512218 73.807462 -93.902344 78.765625 C -94.1419 79.275421 -94.381538 79.785126 -94.621094 80.294922 C -95.426879 81.431604 -96.243003 82.549573 -97.072266 83.638672 C -100.44656 88.254891 -103.75068 92.187093 -106.98438 95.435547 C -110.21807 98.683998 -113.24082 101.16333 -116.05273 102.87305 C -118.72405 104.75373 -121.04338 105.69336 -123.01172 105.69336 C -125.96423 105.69336 -127.43945 103.81214 -127.43945 100.05078 C -127.43945 95.776501 -126.87867 91.844299 -125.75391 88.253906 C -124.62914 84.663511 -123.29265 81.244545 -121.74609 77.996094 C -120.05895 74.74764 -118.30235 71.670179 -116.47461 68.763672 C -114.50627 65.686189 -112.67738 62.60873 -110.99023 59.53125 C -110.42785 58.334453 -110.14648 57.053315 -110.14648 55.685547 C -110.14648 53.633893 -110.49819 51.922458 -111.20117 50.554688 C -111.90415 49.015949 -112.53723 48.248047 -113.09961 48.248047 C -113.52139 48.248047 -114.08413 48.846171 -114.78711 50.042969 L -117.31836 55.427734 C -118.44312 57.650359 -119.63698 60.129695 -120.90234 62.865234 C -122.1677 65.600771 -123.5042 68.508457 -124.91016 71.585938 C -126.17552 74.492447 -127.43972 77.313289 -128.70508 80.048828 C -132.07937 86.374762 -135.03178 90.905089 -137.5625 93.640625 C -139.95263 96.205193 -141.85186 97.486328 -143.25781 97.486328 C -144.80436 97.486328 -145.57812 96.205193 -145.57812 93.640625 C -145.57812 92.101886 -145.15608 89.964055 -144.3125 87.228516 C -143.32833 84.322006 -142.13252 81.07477 -140.72656 77.484375 C -139.18001 73.893983 -137.42342 70.046666 -135.45508 65.943359 C -133.48674 61.84005 -131.37648 57.73612 -129.12695 53.632812 C -128.28338 52.094074 -127.86133 51.067602 -127.86133 50.554688 C -127.86133 50.041775 -128.42406 49.102146 -129.54883 47.734375 C -130.533 46.195636 -131.51778 45.425781 -132.50195 45.425781 C -133.06433 45.425781 -133.69741 46.280522 -134.40039 47.990234 C -138.05588 55.683934 -141.07862 62.182315 -143.46875 67.482422 C -145.05853 71.107265 -146.36084 74.206179 -147.5293 77.0625 C -152.13496 83.527992 -156.38176 88.477246 -160.25977 91.845703 C -166.16478 96.974837 -170.73505 99.539062 -173.96875 99.539062 C -175.93709 99.539062 -177.48461 98.854096 -178.60938 97.486328 C -179.73414 96.11856 -180.29492 94.06757 -180.29492 91.332031 C -180.29492 88.938434 -179.6638 85.776086 -178.39844 81.84375 C -177.13307 77.911414 -175.6559 73.89237 -173.96875 69.789062 C -172.14101 65.685755 -170.31407 61.840395 -168.48633 58.25 C -166.65858 54.659608 -165.18141 51.838763 -164.05664 49.787109 C -162.79128 47.735456 -162.1582 46.195749 -162.1582 45.169922 C -162.1582 43.973122 -162.79128 43.375 -164.05664 43.375 C -165.74379 43.375 -167.78175 44.144852 -170.17188 45.683594 C -172.562 47.222335 -175.02397 49.016706 -177.55469 51.068359 C -180.08541 53.120013 -182.40474 55.171003 -184.51367 57.222656 C -186.62261 59.27431 -188.16817 60.814017 -189.15234 61.839844 C -180.7166 41.665248 -172.98486 24.226956 -165.95508 9.5234375 C -158.7847 -5.3510525 -152.17647 -17.917512 -146.13086 -28.175781 C -140.08525 -38.605019 -134.53214 -47.069502 -129.4707 -53.566406 C -124.26866 -60.063313 -119.41703 -65.106873 -114.91797 -68.697266 C -110.41891 -72.458631 -106.27264 -74.937968 -102.47656 -76.134766 C -98.539887 -77.502536 -94.743377 -78.185547 -91.087891 -78.185547 C -86.870021 -78.185547 -83.425223 -77.415695 -80.753906 -75.876953 C -78.082592 -74.509185 -76.044628 -72.7997 -74.638672 -70.748047 C -73.092119 -68.867364 -72.107332 -66.901263 -71.685547 -64.849609 C -71.123163 -62.797956 -70.841797 -61.173362 -70.841797 -59.976562 C -70.841797 -59.634621 -70.771458 -59.293113 -70.630859 -58.951172 C -70.34967 -58.780201 -70.138645 -58.951932 -69.998047 -59.464844 C -69.71686 -59.977758 -69.505833 -60.917388 -69.365234 -62.285156 C -69.084043 -63.652924 -68.943359 -65.703914 -68.943359 -68.439453 C -68.943362 -72.37179 -69.576436 -75.53609 -70.841797 -77.929688 C -71.966562 -80.494253 -73.514084 -82.460354 -75.482422 -83.828125 C -77.310166 -85.195893 -79.277785 -86.135525 -81.386719 -86.648438 C -83.495652 -87.332323 -85.533613 -87.673828 -87.501953 -87.673828 z M 106.41992 -87.673828 C 98.546569 -87.673828 90.674137 -84.169973 82.800781 -77.160156 C 75.068024 -70.32131 67.404664 -61.430437 59.8125 -50.488281 C 52.220336 -39.546129 44.769958 -27.408015 37.458984 -14.072266 C 30.288609 -0.73651608 23.328668 12.343179 16.580078 25.166016 C 10.815658 36.279139 5.1218714 47.649352 -0.50195312 59.275391 C -1.3065475 60.914254 -2.1212907 62.603078 -2.9316406 64.273438 C -3.136752 64.401301 -3.3618632 64.595606 -3.6269531 64.917969 C -11.219116 76.202066 -18.388129 84.664595 -25.136719 90.306641 C -31.744712 95.777718 -37.0184 98.513672 -40.955078 98.513672 C -43.345203 98.513672 -45.383164 97.658931 -47.070312 95.949219 C -48.616865 94.068536 -49.390625 91.33258 -49.390625 87.742188 C -49.390625 82.954995 -48.82789 78.337829 -47.703125 73.892578 C -46.57836 69.276359 -45.101182 65.259268 -43.273438 61.839844 C -41.3051 58.249449 -39.126457 55.428607 -36.736328 53.376953 C -34.205608 51.154329 -31.604911 50.042969 -28.933594 50.042969 C -26.684064 50.042969 -25.066201 50.812821 -24.082031 52.351562 C -22.957266 53.890301 -22.396484 55.512944 -22.396484 57.222656 C -22.396484 58.761398 -22.60751 60.216216 -23.029297 61.583984 L -22.396484 61.839844 C -20.428146 59.959161 -19.021308 58.506296 -18.177734 57.480469 C -17.193565 56.112701 -16.701172 54.146599 -16.701172 51.582031 C -16.701172 46.623868 -19.301869 44.144531 -24.503906 44.144531 C -25.628671 44.144531 -27.035509 44.570925 -28.722656 45.425781 C -34.34648 48.332291 -39.618215 52.949459 -44.539062 59.275391 C -49.319313 65.430351 -53.04548 72.524903 -55.716797 80.560547 C -56.841562 83.979971 -57.404297 87.22916 -57.404297 90.306641 C -57.404297 98.171313 -53.537445 102.10352 -45.804688 102.10352 C -44.258135 102.10352 -42.642226 101.8469 -40.955078 101.33398 C -39.127336 100.99204 -37.157765 100.30903 -35.048828 99.283203 C -32.377512 97.915435 -29.565789 96.034222 -26.613281 93.640625 C -23.660773 91.24703 -20.778709 88.595963 -17.966797 85.689453 C -15.154884 82.611973 -12.413504 79.449623 -9.7421875 76.201172 C -8.7046982 74.873131 -7.7221908 73.562016 -6.7695312 72.259766 C -10.390718 79.86029 -14.061323 87.733549 -17.794922 95.949219 C -18.216709 96.975046 -18.427734 97.914675 -18.427734 98.769531 C -18.427734 99.966329 -17.864999 100.73618 -16.740234 101.07812 C -15.615469 101.59104 -14.702978 101.84766 -14 101.84766 C -13.015831 101.84766 -11.960702 100.47968 -10.835938 97.744141 C -9.2893856 94.153746 -7.4624499 90.049813 -5.3535156 85.433594 C -3.2445815 80.817372 -1.2046667 76.371934 0.76367188 72.097656 C 5.6845184 64.062013 9.7604416 58.592056 12.994141 55.685547 C 16.368435 52.779037 18.689717 51.324219 19.955078 51.324219 C 20.376865 51.324219 20.587891 51.752566 20.587891 52.607422 C 20.587891 54.146161 19.81413 56.795275 18.267578 60.556641 C 16.721026 64.147036 14.962479 68.16608 12.994141 72.611328 C 11.166398 76.885606 9.4801457 81.159313 7.9335938 85.433594 C 6.3870421 89.707872 5.6132812 93.21368 5.6132812 95.949219 C 5.6132813 98.855728 6.3167 101.07845 7.7226562 102.61719 C 9.1286123 104.3269 11.02589 105.18164 13.416016 105.18164 C 16.509119 105.18164 19.883576 103.98344 23.539062 101.58984 C 27.335144 99.367217 31.061312 96.376598 34.716797 92.615234 C 38.512882 88.853869 42.168704 84.66505 45.683594 80.048828 C 49.33908 75.432606 52.502513 70.815438 55.173828 66.199219 C 55.173828 65.515333 55.033142 65.173828 54.751953 65.173828 C 54.470761 65.173828 54.189395 65.345559 53.908203 65.6875 C 46.316039 77.997424 39.567125 86.716569 33.662109 91.845703 C 27.757093 96.974837 23.188777 99.539063 19.955078 99.539062 C 17.986739 99.539062 16.439218 98.854096 15.314453 97.486328 C 14.189688 96.11856 13.626953 94.06757 13.626953 91.332031 C 13.626953 88.938434 14.26003 85.776086 15.525391 81.84375 C 16.790751 77.911414 18.267931 73.89237 19.955078 69.789062 C 21.782821 65.685755 23.609757 61.840395 25.4375 58.25 C 27.265243 54.659608 28.742423 51.838763 29.867188 49.787109 C 31.132548 47.735456 31.763672 46.195749 31.763672 45.169922 C 31.763672 43.973122 31.132548 43.375 29.867188 43.375 C 28.18004 43.375 26.140125 44.144852 23.75 45.683594 C 21.359875 47.222335 18.899862 49.016706 16.369141 51.068359 C 13.83842 53.120013 11.519091 55.171003 9.4101562 57.222656 C 7.3012222 59.27431 5.7537006 60.814017 4.7695312 61.839844 C 13.205268 41.665248 20.938969 24.226956 27.96875 9.5234375 C 35.139126 -5.3510525 41.747362 -17.917512 47.792969 -28.175781 C 53.838578 -38.605019 59.391682 -47.069502 64.453125 -53.566406 C 69.655163 -60.063313 74.504847 -65.106873 79.003906 -68.697266 C 83.502965 -72.458631 87.651184 -74.937968 91.447266 -76.134766 C 95.383943 -77.502536 99.180452 -78.185547 102.83594 -78.185547 C 107.05381 -78.185547 110.49861 -77.415695 113.16992 -75.876953 C 115.84124 -74.509185 117.8792 -72.7997 119.28516 -70.748047 C 120.83171 -68.867364 121.8165 -66.901263 122.23828 -64.849609 C 122.80066 -62.797956 123.08203 -61.173362 123.08203 -59.976562 C 123.08203 -59.634621 123.15237 -59.293113 123.29297 -58.951172 C 123.57416 -58.780201 123.78323 -58.951932 123.92383 -59.464844 C 124.20501 -59.977758 124.41604 -60.917388 124.55664 -62.285156 C 124.83783 -63.652924 124.97852 -65.703914 124.97852 -68.439453 C 124.97852 -72.37179 124.34739 -75.53609 123.08203 -77.929688 C 121.95727 -80.494253 120.40975 -82.460354 118.44141 -83.828125 C 116.61366 -85.195893 114.64604 -86.135525 112.53711 -86.648438 C 110.42817 -87.332323 108.38826 -87.673828 106.41992 -87.673828 z M 448.67383 -72.287109 C 441.92523 -72.287109 435.31699 -69.637995 428.84961 -64.337891 C 422.52281 -59.208752 415.91654 -51.514125 409.02734 -41.255859 C 402.27875 -31.16856 394.96711 -18.68699 387.09375 -3.8125 C 379.361 10.891019 370.64446 27.816077 360.94336 46.964844 C 359.11563 45.768036 357.42741 45.085023 355.88086 44.914062 C 354.33429 44.743102 352.99975 44.65625 351.875 44.65625 C 350.60963 44.65625 348.99178 44.743102 347.02344 44.914062 C 345.19571 44.914062 343.22808 44.998961 341.11914 45.169922 C 339.1508 45.169922 337.18123 45.254821 335.21289 45.425781 C 333.24455 45.596742 331.48796 45.683594 329.94141 45.683594 C 330.78498 43.63194 331.76977 41.40922 332.89453 39.015625 C 334.0193 36.451057 335.14281 33.971721 336.26758 31.578125 C 337.39234 29.184529 338.44747 26.96181 339.43164 24.910156 C 340.41581 22.858503 341.18957 21.318796 341.75195 20.292969 C 342.59545 18.412286 342.94716 17.472656 342.80664 17.472656 C 342.52545 17.472656 341.96272 17.644386 341.11914 17.986328 C 340.41616 18.32827 339.6424 18.754664 338.79883 19.267578 L 336.26758 20.292969 C 335.5646 20.634911 335.00187 20.891529 334.58008 21.0625 C 332.89293 24.994836 330.99565 29.270498 328.88672 33.886719 C 326.91838 38.50294 325.0211 42.520031 323.19336 45.939453 C 320.80323 45.939453 318.55229 46.024352 316.44336 46.195312 L 310.11719 46.195312 C 309.41421 46.195312 308.92182 46.708548 308.64062 47.734375 C 308.50003 48.589231 308.85174 49.017578 309.69531 49.017578 C 311.10127 48.675624 313.13923 48.419008 315.81055 48.248047 C 318.48186 48.077086 320.66246 47.990234 322.34961 47.990234 C 318.55353 55.854905 315.46044 62.181558 313.07031 66.96875 C 310.68019 71.755942 308.8513 75.688145 307.58594 78.765625 C 306.32058 81.672135 305.47843 84.066583 305.05664 85.947266 C 304.63486 87.656978 304.42383 89.536237 304.42383 91.587891 C 304.42383 93.639544 304.77554 95.26414 305.47852 96.460938 C 306.32209 97.657735 307.37526 98.599318 308.64062 99.283203 C 309.90599 99.796118 311.24248 100.22251 312.64844 100.56445 C 314.19499 100.73541 315.67022 100.82031 317.07617 100.82031 C 320.73166 100.82031 324.52817 100.1373 328.46484 98.769531 C 332.54212 97.401761 335.77589 96.118672 338.16602 94.921875 C 337.04125 97.486443 336.05646 99.796003 335.21289 101.84766 C 334.36932 103.89931 333.80854 105.35218 333.52734 106.20703 C 333.38675 106.54897 333.52743 106.71875 333.94922 106.71875 C 334.5116 106.88971 335.07238 106.88971 335.63477 106.71875 C 336.33775 106.71875 337.04116 106.63385 337.74414 106.46289 C 338.44712 106.29192 338.86917 106.0353 339.00977 105.69336 C 339.43155 105.00948 339.71292 104.32646 339.85352 103.64258 C 340.13471 103.12967 340.41608 102.4447 340.69727 101.58984 C 341.82203 98.512363 343.85999 94.751892 346.8125 90.306641 C 349.765 85.861392 352.85809 81.587685 356.0918 77.484375 C 359.32548 73.381068 362.41857 69.790371 365.37109 66.712891 C 368.3236 63.46444 370.36353 61.498338 371.48828 60.814453 C 372.05067 60.472512 372.33008 60.729128 372.33008 61.583984 C 372.33008 62.267867 372.18938 63.035769 371.9082 63.890625 C 370.36166 67.993932 368.60506 72.182751 366.63672 76.457031 C 364.66838 80.731309 362.70076 84.835242 360.73242 88.767578 C 359.46706 91.161173 358.62294 92.785769 358.20117 93.640625 C 357.91996 94.495481 357.7793 95.178492 357.7793 95.691406 C 358.0605 97.059174 358.48254 98.170535 359.04492 99.025391 C 359.60729 99.709276 360.24038 100.3074 360.94336 100.82031 C 361.92754 100.64934 363.61379 100.05122 366.00391 99.025391 C 368.53464 97.828593 371.4167 96.460616 374.65039 94.921875 C 378.02468 93.383136 381.53983 91.673652 385.19531 89.792969 C 388.85082 87.741315 392.43629 85.775214 395.95117 83.894531 C 395.81057 84.749387 395.6699 85.519242 395.5293 86.203125 L 395.5293 87.998047 C 395.5293 95.691746 397.49691 100.99193 401.43359 103.89844 C 405.51087 106.80495 411.34536 108.25781 418.9375 108.25781 C 423.01478 108.25781 427.5147 107.31818 432.43555 105.4375 C 437.49701 103.72779 442.206 101.33334 446.56445 98.255859 C 451.0635 95.178379 454.93035 91.674524 458.16406 87.742188 C 461.53837 83.809851 463.57828 79.705918 464.28125 75.431641 C 464.28125 74.06387 464.14057 72.439277 463.85938 70.558594 C 463.5782 68.50694 463.4375 67.225803 463.4375 66.712891 C 463.2969 66.199986 463.08588 66.028258 462.80469 66.199219 C 462.66409 66.199219 462.59375 66.370947 462.59375 66.712891 C 462.87492 70.816198 462.03083 75.089908 460.0625 79.535156 C 458.23475 83.980407 455.49335 88.084337 451.83789 91.845703 C 448.32298 95.607069 443.89342 98.68453 438.55078 101.07812 C 433.34877 103.64269 427.44396 104.92383 420.83594 104.92383 C 416.33689 104.92383 412.33129 103.64269 408.81641 101.07812 C 405.44212 98.513557 403.75391 94.409624 403.75391 88.767578 C 403.75391 85.006212 404.03529 81.843865 404.59766 79.279297 C 407.40957 77.398614 410.36199 75.432513 413.45508 73.380859 C 416.68879 71.329206 419.78186 69.276263 422.73438 67.224609 C 425.82749 65.001985 428.63923 62.866107 431.16992 60.814453 C 433.84124 58.591829 436.0199 56.538886 437.70703 54.658203 C 438.12885 54.145288 438.33984 53.547167 438.33984 52.863281 C 437.63685 50.298716 436.65403 48.162837 435.38867 46.453125 C 434.12331 44.743413 431.87236 43.888672 428.63867 43.888672 C 425.68613 43.888672 422.5227 45.000029 419.14844 47.222656 C 415.91472 49.27431 412.75129 52.095154 409.6582 55.685547 C 406.70569 59.104971 403.96432 63.122062 401.43359 67.738281 C 399.04345 72.354503 397.28685 77.141446 396.16211 82.099609 C 393.06899 83.809322 389.90556 85.518803 386.67188 87.228516 C 383.43816 88.938225 380.48577 90.477932 377.81445 91.845703 C 375.14316 93.042501 372.82381 94.067019 370.85547 94.921875 C 369.02772 95.776731 367.76157 96.205078 367.05859 96.205078 C 366.35562 96.205078 366.00391 95.691842 366.00391 94.666016 C 366.00391 94.153101 366.42596 92.700236 367.26953 90.306641 C 368.25372 87.742072 369.37917 84.836342 370.64453 81.587891 C 372.05049 78.168466 373.52572 74.662658 375.07227 71.072266 C 376.61881 67.481871 377.95531 64.319523 379.08008 61.583984 C 379.22068 61.242043 379.36135 60.813696 379.50195 60.300781 C 379.78312 59.616898 379.92383 59.018774 379.92383 58.505859 C 379.92383 57.992947 379.50177 57.394823 378.6582 56.710938 C 377.81463 55.856081 377.04087 55.427734 376.33789 55.427734 C 375.49432 55.427734 374.22818 56.025859 372.54102 57.222656 C 370.99447 58.419456 368.95649 60.385557 366.42578 63.121094 C 363.89505 65.685662 360.87231 69.19147 357.35742 73.636719 C 353.84253 77.910999 349.69432 83.296067 344.91406 89.792969 C 346.46061 86.202576 348.43017 81.757138 350.82031 76.457031 C 353.35102 70.985956 356.65514 64.063134 360.73242 55.685547 C 361.4354 55.343605 362.27753 54.915258 363.26172 54.402344 C 364.38647 53.889432 365.08989 53.376196 365.37109 52.863281 C 365.37109 51.837454 364.94906 50.556317 364.10547 49.017578 C 371.55704 32.604348 378.23561 18.413293 384.14062 6.4453125 C 390.18623 -5.5226678 395.59864 -15.696632 400.37891 -24.074219 C 405.29975 -32.451805 409.72936 -39.204852 413.66602 -44.333984 C 417.74329 -49.463118 421.46946 -53.480209 424.84375 -56.386719 C 428.35866 -59.293231 431.66274 -61.259329 434.75586 -62.285156 C 437.98955 -63.310983 441.22334 -63.824219 444.45703 -63.824219 C 447.12838 -63.824219 449.23667 -63.310983 450.7832 -62.285156 C 452.32976 -61.430303 453.45524 -60.403831 454.1582 -59.207031 C 454.58 -60.061887 454.86135 -61.00347 455.00195 -62.029297 C 455.28312 -63.226094 455.42383 -64.250613 455.42383 -65.105469 C 455.42383 -67.841008 454.72041 -69.72222 453.31445 -70.748047 C 452.04909 -71.773874 450.50156 -72.287109 448.67383 -72.287109 z M 847.44141 -64.080078 C 843.08296 -64.080078 838.30165 -61.857363 833.09961 -57.412109 C 827.89757 -52.966861 822.13344 -45.61569 815.80664 -35.357422 C 807.37091 -22.021672 799.28745 -8.1721234 791.55469 6.1894531 C 783.96252 20.55103 776.65089 34.911861 769.62109 49.273438 C 769.76169 48.418581 769.76169 47.39211 769.62109 46.195312 C 769.48052 44.827542 769.05846 43.887912 768.35547 43.375 C 768.07427 43.033056 767.86325 43.033056 767.72266 43.375 C 767.58208 43.545971 767.65242 43.887476 767.93359 44.400391 C 768.35539 45.084273 768.56641 46.110745 768.56641 47.478516 C 768.56641 50.214052 767.02082 53.119785 763.92773 56.197266 C 760.83462 59.103775 757.46017 61.667998 753.80469 63.890625 C 750.1492 66.113249 746.70442 67.994464 743.4707 69.533203 C 740.23701 71.071945 736.58116 72.953157 732.50391 75.175781 C 734.75343 70.388589 736.58039 65.943151 737.98633 61.839844 C 739.53289 57.565566 740.30664 54.316374 740.30664 52.09375 C 740.30664 50.725979 739.81424 49.701461 738.83008 49.017578 C 737.84589 48.333693 737.00375 47.990234 736.30078 47.990234 C 733.91066 47.990234 730.39551 50.299794 725.75586 54.916016 C 721.25681 59.532235 716.54587 65.25881 711.625 72.097656 C 711.20323 72.781542 710.92185 73.123047 710.78125 73.123047 C 710.64065 73.123047 710.71099 72.696653 710.99219 71.841797 C 711.41398 70.81597 712.04706 69.191374 712.89062 66.96875 C 713.87479 64.746123 714.78922 62.438517 715.63281 60.044922 C 716.47638 57.480354 717.25016 55.085906 717.95312 52.863281 C 718.65612 50.640657 719.00586 49.016061 719.00586 47.990234 C 719.00586 45.425666 717.9527 44.144531 715.84375 44.144531 C 714.57839 44.144531 712.89018 44.486037 710.78125 45.169922 C 708.8129 45.682837 706.7046 46.367803 704.45508 47.222656 L 698.12891 49.787109 C 696.16055 50.641965 694.61304 51.409865 693.48828 52.09375 C 692.64469 52.435691 692.36331 52.948927 692.64453 53.632812 C 692.9257 54.145715 693.4181 54.230613 694.12109 53.888672 C 697.07359 52.17896 699.74462 50.982713 702.13477 50.298828 C 704.66546 49.614945 706.49435 49.273438 707.61914 49.273438 C 709.16567 49.273438 710.07815 49.699834 710.35938 50.554688 C 710.78115 51.238573 710.99219 52.436772 710.99219 54.146484 C 710.99219 56.369109 710.07968 60.55793 708.25195 66.712891 C 706.56477 72.867854 703.54204 80.303911 699.18359 89.023438 L 693.48828 91.587891 C 693.06649 92.955661 692.85547 94.41048 692.85547 95.949219 C 692.99607 97.48796 693.4181 98.855937 694.12109 100.05273 C 689.90322 108.60129 685.33491 117.74683 680.41406 127.49219 C 675.35262 137.23754 670.14928 147.06805 664.80664 156.98438 C 659.46403 167.07167 654.1923 177.07391 648.99023 186.99023 C 643.64762 196.90656 638.58689 206.22579 633.80664 214.94531 C 631.13532 219.7325 627.97189 222.63824 624.31641 223.66406 C 623.61341 224.00601 623.26172 224.34751 623.26172 224.68945 C 623.26172 225.03139 623.61341 225.20313 624.31641 225.20312 L 631.9082 222.89453 C 634.7201 222.21065 636.89876 221.86914 638.44531 221.86914 C 639.14828 221.86914 639.71102 221.52764 640.13281 220.84375 C 640.55461 220.15987 640.9063 219.55979 641.1875 219.04688 C 644.84298 210.66929 649.0596 201.35202 653.83984 191.09375 C 658.47952 181.00645 663.33114 170.66271 668.39258 160.0625 C 673.454 149.63326 678.44439 139.28952 683.36523 129.03125 C 688.2861 118.94395 692.71566 109.79646 696.65234 101.58984 C 697.77708 102.44471 698.9006 102.95795 700.02539 103.12891 C 701.29075 103.29987 702.48657 103.38477 703.61133 103.38477 C 706.56382 102.70088 710.07897 101.16313 714.15625 98.769531 C 718.23353 96.204963 721.67832 93.299232 724.49023 90.050781 C 725.89619 87.999128 727.09008 86.033027 728.07422 84.152344 C 729.19901 82.10069 730.32446 79.962859 731.44922 77.740234 C 735.3859 75.688581 738.83069 73.892257 741.7832 72.353516 C 744.73572 70.814774 748.25085 69.020404 752.32812 66.96875 C 755.28062 65.430011 757.88133 63.977146 760.13086 62.609375 C 762.52098 61.070636 764.34792 59.361152 765.61328 57.480469 C 762.0984 64.832227 759.07564 70.987149 756.54492 75.945312 C 754.1548 80.732505 752.18718 84.664707 750.64062 87.742188 C 749.09407 90.648697 747.96859 92.871415 747.26562 94.410156 C 746.56266 95.777924 746.21289 96.717554 746.21289 97.230469 C 746.21289 97.914352 746.56266 98.255859 747.26562 98.255859 C 747.5468 98.255859 748.0392 98.170961 748.74219 98 C 749.44515 97.829019 750.21893 97.657289 751.0625 97.486328 C 751.90612 97.144387 752.67985 96.802881 753.38281 96.460938 C 754.08578 95.948025 754.50784 95.521629 754.64844 95.179688 C 755.492 93.640946 756.40451 91.674845 757.38867 89.28125 C 758.37286 86.887653 759.35763 84.664935 760.3418 82.613281 C 763.29429 76.458321 766.31704 71.243028 769.41016 66.96875 C 772.50325 62.69447 775.3853 59.275503 778.05664 56.710938 C 780.72796 53.975399 783.0473 52.009297 785.01562 50.8125 C 787.12458 49.6157 788.46109 49.017578 789.02344 49.017578 C 789.44523 49.017578 789.65625 49.528861 789.65625 50.554688 C 789.65625 51.238573 789.16383 52.60655 788.17969 54.658203 C 787.33607 56.709857 786.21062 59.276035 784.80469 62.353516 C 783.39873 65.260025 781.78281 68.678992 779.95508 72.611328 C 778.12732 76.543665 776.30039 80.732483 774.47266 85.177734 C 773.2073 88.084244 772.3632 90.391853 771.94141 92.101562 C 771.66021 93.811275 771.51953 95.350979 771.51953 96.71875 C 771.51953 98.257489 771.87123 99.538626 772.57422 100.56445 C 773.41778 101.76125 774.75232 102.35938 776.58008 102.35938 C 779.53257 102.35938 782.90704 101.16313 786.70312 98.769531 C 790.49921 96.375936 794.22538 93.470206 797.88086 90.050781 C 799.80719 88.315587 801.65794 86.534185 803.43945 84.710938 C 801.67507 89.424736 800.78125 93.435338 800.78125 96.71875 C 800.78125 100.30914 802.25647 102.10352 805.20898 102.10352 C 807.17734 102.10352 809.42829 101.24877 811.95898 99.539062 C 814.48971 97.65838 817.02006 95.435659 819.55078 92.871094 C 822.0815 90.135555 824.54152 87.142982 826.93164 83.894531 C 829.32179 80.646078 831.43008 77.568616 833.25781 74.662109 C 830.86769 79.278329 829.04075 83.63888 827.77539 87.742188 C 826.65063 91.674524 826.08789 94.836871 826.08789 97.230469 C 826.08789 99.795034 826.65063 101.93287 827.77539 103.64258 C 828.90015 105.35229 830.86777 106.20703 833.67969 106.20703 C 836.91338 106.20703 840.42853 105.01078 844.22461 102.61719 C 848.16129 100.22359 852.09848 97.05929 856.03516 93.126953 C 859.97184 89.194617 863.83868 84.836021 867.63477 80.048828 C 869.12388 78.173322 870.54507 76.313933 871.93359 74.462891 C 871.22247 76.208848 870.473 78.094384 869.77539 79.791016 C 867.66646 83.039467 865.69882 86.032039 863.87109 88.767578 C 862.18394 91.332146 861.33984 93.383136 861.33984 94.921875 C 861.33984 95.43479 861.55086 96.632989 861.97266 98.513672 C 862.53502 100.39435 863.1681 101.33398 863.87109 101.33398 C 864.15227 101.33398 864.57433 100.82075 865.13672 99.794922 C 867.52684 95.349671 869.49446 91.33258 871.04102 87.742188 C 872.72817 84.151793 874.69579 80.21959 876.94531 75.945312 C 878.21067 74.06463 879.82855 71.926801 881.79688 69.533203 C 883.90583 67.139608 886.01412 64.831999 888.12305 62.609375 C 890.37257 60.215778 892.55318 57.99306 894.66211 55.941406 C 896.77106 53.889753 898.598 52.265157 900.14453 51.068359 C 900.8475 50.555435 901.26956 50.640333 901.41016 51.324219 C 901.69138 51.837131 901.69138 52.522097 901.41016 53.376953 C 900.14482 56.967348 898.45658 60.89955 896.34766 65.173828 C 894.3793 69.448106 892.41169 73.636925 890.44336 77.740234 C 888.61561 81.843541 886.99971 85.775744 885.59375 89.537109 C 884.18779 93.127502 883.48438 96.120074 883.48438 98.513672 C 883.48437 100.90727 884.18779 102.36013 885.59375 102.87305 C 886.99971 103.55693 888.54527 103.89844 890.23242 103.89844 C 893.88791 103.89844 897.6141 102.78708 901.41016 100.56445 C 905.34686 98.341829 909.14334 95.520987 912.79883 92.101562 C 914.92303 90.188132 916.94838 88.126422 918.89648 85.945312 C 918.20848 88.151693 917.8457 90.043855 917.8457 91.587891 C 917.8457 93.639544 918.40847 95.179251 919.5332 96.205078 C 920.65799 97.230905 922.20548 97.744141 924.17383 97.744141 C 926.98572 97.744141 929.72712 96.8894 932.39844 95.179688 C 935.06976 93.299005 937.17805 91.58952 938.72461 90.050781 C 938.86521 89.8798 939.07625 89.70807 939.35742 89.537109 C 939.63864 89.366136 939.63864 89.622755 939.35742 90.306641 C 935.84254 97.829372 931.97569 105.77866 927.75781 114.15625 C 923.53996 122.70481 919.04199 131.16929 914.26172 139.54688 C 909.6221 147.92446 904.77045 155.95864 899.70898 163.65234 C 894.64754 171.34604 889.44613 178.10104 884.10352 183.91406 C 878.62028 189.72708 873.0672 194.34229 867.44336 197.76172 C 861.67895 201.35211 855.91483 203.14648 850.15039 203.14648 C 842.98002 203.14648 837.9877 201.26723 835.17578 197.50586 C 832.36386 193.7445 830.95898 189.55567 830.95898 184.93945 C 830.95898 184.25558 830.81828 183.99896 830.53711 184.16992 C 830.25591 184.3409 830.0449 184.6824 829.9043 185.19531 C 829.62313 186.05017 829.41208 187.16153 829.27148 188.5293 C 828.99029 190.06804 828.84961 191.5209 828.84961 192.88867 C 828.84961 198.87266 830.46553 203.06148 833.69922 205.45508 C 836.93291 207.84867 840.58874 209.04492 844.66602 209.04492 C 851.55521 209.04492 858.16343 207.25055 864.49023 203.66016 C 870.67644 200.06976 876.72195 195.19793 882.62695 189.04297 C 888.39136 182.88801 894.01481 175.62173 899.49805 167.24414 C 904.98128 159.03753 910.32533 150.23154 915.52734 140.82812 C 920.72941 131.59568 925.86043 121.93691 930.92188 111.84961 C 936.12392 101.93328 941.25496 92.272555 946.31641 82.869141 C 948.42533 79.62069 950.60594 76.114881 952.85547 72.353516 C 955.24559 68.59215 957.42423 65.088295 959.39258 61.839844 C 961.36091 58.420419 962.97683 55.514689 964.24219 53.121094 C 965.50757 50.556526 966.14062 48.93193 966.14062 48.248047 C 966.14062 46.880276 965.85927 45.512299 965.29688 44.144531 C 964.87508 42.776763 964.38271 41.922022 963.82031 41.580078 C 962.83615 41.580078 961.57192 42.861213 960.02539 45.425781 C 958.61943 47.990347 957.07192 51.15465 955.38477 54.916016 C 951.86986 62.609718 948.8471 69.362762 946.31641 75.175781 C 943.92626 80.81783 942.09932 84.408527 940.83398 85.947266 C 940.27159 86.802122 939.4275 87.741751 938.30273 88.767578 C 937.17797 89.622434 935.98216 90.477175 934.7168 91.332031 C 933.45144 92.186887 932.2576 92.871853 931.13281 93.384766 C 930.00808 93.89768 929.09362 94.152344 928.39062 94.152344 C 926.84407 94.152344 926.07031 93.127825 926.07031 91.076172 C 926.07031 87.314806 927.75853 82.099516 931.13281 75.431641 C 934.64772 68.592795 938.93465 59.78876 943.99609 49.017578 C 943.99609 48.504666 943.71667 48.248047 943.1543 48.248047 C 942.87307 48.248047 942.09932 48.417824 940.83398 48.759766 C 939.7092 48.930746 938.79476 49.102477 938.0918 49.273438 C 937.67 49.615381 937.24794 50.041775 936.82617 50.554688 C 936.54498 50.896631 936.12292 51.496709 935.56055 52.351562 C 930.63968 61.584006 926.42309 69.618185 922.9082 76.457031 C 921.99076 78.269975 921.20901 79.95259 920.54102 81.525391 C 918.33675 84.180409 916.04173 86.687558 913.64062 89.023438 C 910.26634 92.271891 906.96416 95.007844 903.73047 97.230469 C 900.49676 99.453093 897.68309 100.56445 895.29297 100.56445 C 893.74641 100.56445 892.62291 100.22295 891.91992 99.539062 C 891.21695 98.684206 890.86523 97.231341 890.86523 95.179688 C 890.86523 92.78609 891.56865 89.536901 892.97461 85.433594 C 894.38057 81.330287 896.06683 77.056579 898.03516 72.611328 C 900.14411 67.995109 902.32274 63.549671 904.57227 59.275391 C 906.82182 55.001113 908.72105 51.495305 910.26758 48.759766 C 910.97057 47.391997 911.32227 46.367479 911.32227 45.683594 C 911.32227 44.999708 911.04091 44.314742 910.47852 43.630859 C 910.05672 42.776003 909.56432 42.349609 909.00195 42.349609 C 908.15836 42.349609 906.61085 43.289239 904.36133 45.169922 C 902.2524 46.879634 899.72205 49.102354 896.76953 51.837891 C 893.95761 54.57343 890.93486 57.566002 887.70117 60.814453 C 884.60806 64.062907 881.72601 67.140365 879.05469 70.046875 C 881.02304 64.746768 882.99258 60.129602 884.96094 56.197266 C 887.06986 52.093959 888.12305 49.701463 888.12305 49.017578 C 888.12305 47.991751 887.77133 47.050166 887.06836 46.195312 C 886.36537 45.340456 885.59357 44.914062 884.75 44.914062 C 883.90641 44.914062 883.27333 45.340456 882.85156 46.195312 C 881.16441 50.982502 879.1245 56.454412 876.73438 62.609375 C 875.83582 64.859036 874.99588 66.891191 874.11719 69.068359 C 871.63837 72.598116 869.05985 76.007239 866.36914 79.279297 C 862.71366 83.895516 859.12817 87.997496 855.61328 91.587891 C 852.09837 95.007312 848.79429 97.743268 845.70117 99.794922 C 842.60808 101.6756 839.93702 102.61719 837.6875 102.61719 C 835.71915 102.61719 834.38265 102.10395 833.67969 101.07812 C 833.11729 100.0523 832.83594 98.769208 832.83594 97.230469 C 832.83594 93.298132 834.31311 87.31494 837.26562 79.279297 C 840.35874 71.07268 845.13809 60.043975 851.60547 46.195312 C 852.44906 46.195312 853.71521 46.282164 855.40234 46.453125 C 857.0895 46.624096 858.3537 46.878759 859.19727 47.220703 C 859.61906 47.220703 859.83008 46.96604 859.83008 46.453125 C 859.83008 45.940213 859.48031 45.511866 858.77734 45.169922 C 858.07435 44.998941 857.01922 44.827211 855.61328 44.65625 C 854.20732 44.485289 853.15221 44.400391 852.44922 44.400391 C 853.15221 43.032622 853.78531 41.751485 854.34766 40.554688 C 855.05065 39.186917 855.75406 38.075558 856.45703 37.220703 L 856.03516 36.962891 L 850.12891 39.015625 C 849.56654 39.357566 849.00575 39.870802 848.44336 40.554688 C 847.88097 41.23857 847.24789 42.434819 846.54492 44.144531 C 840.63991 44.144531 834.94613 46.195521 829.46289 50.298828 C 823.97965 54.231165 819.05767 59.018108 814.69922 64.660156 C 810.8711 69.625665 807.745 74.80535 805.30664 80.193359 C 800.95748 84.873254 797.13459 88.43865 793.87305 90.818359 C 788.38981 94.921669 784.87661 96.974609 783.33008 96.974609 C 781.08055 96.974609 779.95508 95.350016 779.95508 92.101562 C 779.95508 89.878938 780.58815 86.886366 781.85352 83.125 C 783.11885 79.192664 784.59409 75.175573 786.28125 71.072266 C 787.96841 66.797988 789.65659 62.780897 791.34375 59.019531 C 793.17148 55.258166 794.57636 52.43537 795.56055 50.554688 C 795.98232 49.699831 796.19336 48.93193 796.19336 48.248047 C 796.19336 47.22222 795.912 46.280637 795.34961 45.425781 C 794.92784 44.570925 794.57612 44.144531 794.29492 44.144531 C 792.60777 44.144531 789.374 45.682285 784.59375 48.759766 C 779.9541 51.837246 774.82303 56.96765 769.19922 64.148438 C 768.91802 64.490381 768.707 64.660156 768.56641 64.660156 C 768.42581 64.489186 768.49615 63.97595 768.77734 63.121094 C 772.8546 53.71768 776.72147 44.828757 780.37695 36.451172 C 784.03244 27.902615 787.75858 19.694751 791.55469 11.830078 C 795.49134 3.9654053 799.49694 -3.7272695 803.57422 -11.25 C 807.7921 -18.943702 812.29202 -26.551488 817.07227 -34.074219 C 820.02478 -38.69044 822.83649 -42.452868 825.50781 -45.359375 C 828.17913 -48.265885 830.63915 -50.488602 832.88867 -52.027344 C 835.1382 -53.737056 837.17811 -54.848416 839.00586 -55.361328 C 840.97419 -55.874243 842.66045 -56.130859 844.06641 -56.130859 C 846.7377 -56.130859 848.63498 -55.617624 849.75977 -54.591797 C 850.88453 -53.736941 851.79896 -52.710469 852.50195 -51.513672 L 853.13477 -52.027344 C 853.41596 -52.711229 853.55664 -53.56597 853.55664 -54.591797 C 853.69724 -55.788594 853.76758 -56.728224 853.76758 -57.412109 C 853.76758 -59.634739 853.20484 -61.259329 852.08008 -62.285156 C 850.95532 -63.481954 849.40976 -64.080078 847.44141 -64.080078 z M 171.29688 -14.072266 C 163.28293 -14.072266 155.47888 -12.532559 147.88672 -9.4550781 C 140.29455 -6.3775973 133.47725 -1.5057654 127.43164 5.1621094 C 124.33854 8.5815324 121.1751 12.857194 117.94141 17.986328 C 114.70771 23.115463 111.82564 28.585419 109.29492 34.398438 C 106.7642 40.211456 104.65394 46.196602 102.9668 52.351562 C 101.42024 58.335555 100.64648 64.062128 100.64648 69.533203 C 100.64648 76.030108 101.63127 81.415175 103.59961 85.689453 C 105.70855 89.963731 108.44992 93.384651 111.82422 95.949219 C 115.33911 98.513784 119.41699 100.30816 124.05664 101.33398 C 128.83689 102.35981 133.96794 102.87305 139.45117 102.87305 C 148.58989 102.87305 157.37872 100.4786 165.81445 95.691406 C 174.25019 90.904214 181.63023 84.579517 187.95703 76.714844 C 194.42443 68.850171 199.62582 59.874406 203.5625 49.787109 C 207.49918 39.699811 209.53909 29.356071 209.67969 18.755859 C 209.82028 12.258956 208.69481 6.9587763 206.30469 2.8554688 C 203.91456 -1.41881 200.82147 -4.7528883 197.02539 -7.1464844 C 193.3699 -9.7110516 189.22364 -11.507376 184.58398 -12.533203 C 180.08492 -13.55903 175.65534 -14.072266 171.29688 -14.072266 z M -232.0957 -13.814453 C -238.84429 -13.814453 -245.31184 -12.361587 -251.49805 -9.4550781 C -257.68425 -6.7195397 -263.3077 -2.9590672 -268.36914 1.828125 C -272.44641 5.5894904 -276.52429 10.206658 -280.60156 15.677734 C -284.53824 21.148811 -288.12372 27.047115 -291.35742 33.373047 C -294.59112 39.698979 -297.26216 46.282248 -299.37109 53.121094 C -301.33943 59.95994 -302.32422 66.626145 -302.32422 73.123047 C -302.32422 78.936066 -301.48011 83.809851 -299.79297 87.742188 C -298.10582 91.503553 -295.85683 94.581012 -293.04492 96.974609 C -290.09241 99.197234 -286.7883 100.73499 -283.13281 101.58984 C -279.33673 102.61567 -275.39954 103.12891 -271.32227 103.12891 C -258.66866 103.12891 -247.07006 99.794828 -236.52539 93.126953 C -225.84012 86.288107 -217.26427 76.970837 -210.79688 65.173828 C -210.37509 64.318972 -210.02338 63.464231 -209.74219 62.609375 C -209.3204 61.583548 -209.10938 60.387299 -209.10938 59.019531 C -209.10938 56.625936 -209.39074 55.427734 -209.95312 55.427734 C -210.23431 55.427734 -210.58602 55.771195 -211.00781 56.455078 C -219.72474 70.987626 -228.93367 82.099267 -238.63477 89.792969 C -248.33586 97.315698 -259.09036 101.07812 -270.90039 101.07812 C -273.7123 101.07812 -276.45369 100.82151 -279.125 100.30859 C -281.79632 99.624708 -284.18599 98.513348 -286.29492 96.974609 C -288.26326 95.435868 -289.88112 93.298039 -291.14648 90.5625 C -292.41185 87.826961 -293.04492 84.323106 -293.04492 80.048828 C -293.04492 72.184155 -291.77877 64.14802 -289.24805 55.941406 C -286.57673 47.563819 -283.27262 39.699414 -279.33594 32.347656 C -275.39926 24.824926 -271.25299 18.071881 -266.89453 12.087891 C -262.39547 6.1039004 -258.38794 1.5716213 -254.87305 -1.5058594 C -251.77994 -4.2413979 -248.47583 -6.5490049 -244.96094 -8.4296875 C -241.44605 -10.481341 -237.64954 -11.507812 -233.57227 -11.507812 C -228.51082 -11.507813 -224.43295 -10.822847 -221.33984 -9.4550781 C -218.10615 -8.0873089 -215.57579 -6.2929375 -213.74805 -4.0703125 C -211.77971 -1.8476876 -210.44516 0.63164908 -209.74219 3.3671875 C -209.03921 6.102726 -208.6875 8.7537922 -208.6875 11.318359 C -208.6875 12.686128 -208.82818 14.30877 -209.10938 16.189453 C -209.24997 17.899164 -209.461 19.182253 -209.74219 20.037109 L -207.84375 19.267578 C -206.85958 15.848155 -205.59343 12.000841 -204.04688 7.7265625 C -202.50032 3.2813127 -201.23612 0.03407567 -200.25195 -2.0175781 C -200.25195 -3.3853473 -200.81469 -4.4118185 -201.93945 -5.0957031 C -206.43851 -8.3441549 -211.35854 -10.566874 -216.70117 -11.763672 C -221.90321 -13.131441 -227.03426 -13.814453 -232.0957 -13.814453 z M 609.43359 -13.044922 C 606.05928 -13.044922 601.98337 -12.960033 597.20312 -12.789062 L 582.86133 -12.275391 C 578.22166 -12.104419 574.00504 -11.934643 570.20898 -11.763672 C 566.41288 -11.592701 563.73992 -11.507812 562.19336 -11.507812 C 557.83491 -11.507813 553.19623 -11.592701 548.27539 -11.763672 C 543.49514 -11.934643 538.92488 -12.191261 534.56641 -12.533203 C 533.72284 -11.507376 533.16206 -9.541275 532.88086 -6.6347656 L 533.30273 -6.3769531 C 536.53642 -7.4027799 540.26064 -8.0877451 544.47852 -8.4296875 C 548.69637 -8.7716297 552.91494 -8.9414062 557.13281 -8.9414062 C 557.97638 -8.9414062 558.39844 -8.5999002 558.39844 -7.9160156 C 558.39844 -7.232131 557.55432 -4.9245239 555.86719 -0.9921875 C 554.32063 2.7691779 552.49369 7.0428862 550.38477 11.830078 C 548.41641 16.446299 546.44684 20.806849 544.47852 24.910156 C 542.65079 29.013464 541.45692 31.662577 540.89453 32.859375 C 539.34797 36.449769 536.95832 38.50271 533.72461 39.015625 C 532.03748 39.357566 531.19336 40.125468 531.19336 41.322266 C 531.19336 41.83518 531.54505 42.091797 532.24805 42.091797 C 533.79458 42.091797 534.77745 42.178649 535.19922 42.349609 C 535.62101 42.52058 535.83203 42.862088 535.83203 43.375 C 535.83203 43.545973 534.98987 45.512074 533.30273 49.273438 C 531.61558 52.863832 529.71635 56.967763 527.60742 61.583984 C 525.49847 66.029233 523.46052 70.302943 521.49219 74.40625 C 519.52386 78.509557 518.25771 81.158669 517.69531 82.355469 C 516.14878 85.77489 515.375 89.024082 515.375 92.101562 C 515.375 93.811275 515.72672 95.350982 516.42969 96.71875 C 517.13265 97.91555 518.39883 99.024954 520.22656 100.05078 C 522.19492 100.90564 524.86592 101.50571 528.24023 101.84766 C 531.61452 102.36057 535.97379 102.61719 541.31641 102.61719 C 544.97189 102.61719 548.83678 102.44546 552.91406 102.10352 C 556.99134 101.76157 561.13954 101.24834 565.35742 100.56445 C 569.57527 99.880568 573.7235 99.197555 577.80078 98.513672 C 581.87806 97.658816 585.67457 96.717233 589.18945 95.691406 C 592.14197 94.83655 594.10959 93.298796 595.09375 91.076172 C 595.65614 90.050345 596.28922 88.938987 596.99219 87.742188 C 597.83575 86.374419 598.67792 85.263059 599.52148 84.408203 C 599.52148 83.382376 599.24206 83.040871 598.67969 83.382812 C 595.86779 85.947378 592.00092 88.254987 587.08008 90.306641 C 582.29981 92.358297 577.23717 94.152667 571.89453 95.691406 C 566.55192 97.059174 561.28019 98.085646 556.07812 98.769531 C 551.01671 99.453417 546.7278 99.794922 543.21289 99.794922 C 533.23063 99.794922 528.24023 95.777831 528.24023 87.742188 C 528.24023 84.664707 528.94368 81.158899 530.34961 77.226562 C 532.17734 71.926455 534.28563 66.456499 536.67578 60.814453 C 539.2065 55.172405 541.66652 49.785384 544.05664 44.65625 C 544.47841 43.630423 545.25217 43.119141 546.37695 43.119141 C 549.04827 42.94818 551.86001 42.861328 554.8125 42.861328 L 564.30273 42.861328 C 568.66121 42.861328 572.95012 42.94818 577.16797 43.119141 C 581.52644 43.119141 585.53397 43.204039 589.18945 43.375 C 590.17362 43.375 590.7344 43.033495 590.875 42.349609 C 591.1562 41.494753 591.50792 40.553171 591.92969 39.527344 C 592.35151 38.501517 592.7032 37.646775 592.98438 36.962891 L 592.35156 36.193359 C 587.43072 37.561128 582.51069 38.50271 577.58984 39.015625 C 572.80957 39.357566 567.18613 39.527344 560.71875 39.527344 L 554.60156 39.527344 C 552.63321 39.527344 550.66562 39.442445 548.69727 39.271484 C 547.29133 39.271484 546.86927 38.501631 547.43164 36.962891 C 550.80595 29.611131 554.39144 22.088233 558.1875 14.394531 C 562.12421 6.5298586 565.99105 -0.47980414 569.78711 -6.6347656 C 570.9119 -8.344477 572.59813 -9.1992188 574.84766 -9.1992188 C 579.9091 -9.1992188 584.96983 -9.0274893 590.03125 -8.6855469 C 595.09272 -8.3436047 599.80366 -7.7454808 604.16211 -6.890625 C 604.5839 -6.719654 604.9356 -6.2064183 605.2168 -5.3515625 C 605.63857 -4.4967067 605.84961 -3.5570769 605.84961 -2.53125 L 606.69336 -2.2753906 C 607.39633 -4.1560733 608.16815 -5.9504449 609.01172 -7.6601562 C 609.85531 -9.5408388 610.41802 -10.908816 610.69922 -11.763672 C 610.69922 -12.618528 610.27716 -13.044922 609.43359 -13.044922 z M 171.50781 -12.275391 C 175.58509 -12.275391 179.31125 -11.677267 182.68555 -10.480469 C 186.05984 -9.4546417 188.94191 -7.7451585 191.33203 -5.3515625 C 193.72216 -3.1289375 195.61943 -0.13636527 197.02539 3.625 C 198.43134 7.2153941 199.13477 11.658879 199.13477 16.958984 C 199.13477 26.191426 197.44656 35.767267 194.07227 45.683594 C 190.83857 55.428949 186.41093 64.404714 180.78711 72.611328 C 175.16328 80.646972 168.6254 87.315127 161.17383 92.615234 C 153.86286 97.915339 146.06077 100.56445 137.76562 100.56445 C 133.82895 100.56445 130.17312 100.13806 126.79883 99.283203 C 123.56513 98.257376 120.75341 96.717669 118.36328 94.666016 C 115.97316 92.443391 114.07393 89.537661 112.66797 85.947266 C 111.40261 82.1859 110.76953 77.568732 110.76953 72.097656 C 110.76953 66.968522 111.54329 61.498566 113.08984 55.685547 C 114.6364 49.701557 116.60597 43.8013 118.99609 37.988281 C 121.38622 32.175262 123.98692 26.705306 126.79883 21.576172 C 129.75133 16.447037 132.56306 12.086488 135.23438 8.4960938 C 140.15522 1.6572477 145.56764 -3.4712021 151.47266 -6.890625 C 157.37767 -10.481019 164.05624 -12.275391 171.50781 -12.275391 z M 689.64062 6.4453125 C 687.6723 6.4453125 685.98408 7.4717837 684.57812 9.5234375 C 683.31276 11.575091 682.67969 13.710969 682.67969 15.933594 C 682.67969 17.985248 683.52378 19.011719 685.21094 19.011719 C 687.03869 19.011719 688.65657 17.985248 690.0625 15.933594 C 691.60906 13.88194 692.38086 11.830951 692.38086 9.7792969 C 692.38086 7.5566721 691.46838 6.4453125 689.64062 6.4453125 z M 648.02734 20.806641 C 647.88672 20.806641 647.46469 20.891529 646.76172 21.0625 C 646.05873 21.0625 645.28692 21.149342 644.44336 21.320312 L 641.91211 21.832031 C 641.06854 22.003003 640.50583 22.174732 640.22461 22.345703 C 639.24045 22.687646 638.46667 23.200881 637.9043 23.884766 C 633.12403 31.407496 628.48538 39.954912 623.98633 49.529297 C 619.48725 59.103679 614.98733 68.336063 610.48828 77.226562 L 600.78711 96.460938 C 600.22474 96.631921 599.45294 96.803649 598.46875 96.974609 C 597.62518 97.14558 597.20312 97.743704 597.20312 98.769531 C 597.20312 100.30827 597.62518 101.2479 598.46875 101.58984 C 593.6885 111.3352 588.97754 120.99593 584.33789 130.57031 C 579.69822 140.31567 575.26866 149.46316 571.05078 158.01172 C 566.83293 166.56027 563.03835 174.33784 559.66406 181.34766 C 556.14918 188.52844 553.19679 194.51359 550.80664 199.30078 C 548.41654 203.917 546.30627 207.76432 544.47852 210.8418 C 542.65079 213.91928 540.75351 216.56839 538.78516 218.79102 C 536.67623 221.01364 534.35692 222.89485 531.82617 224.43359 C 529.29548 226.1433 526.20238 227.85279 522.54688 229.5625 C 521.70331 229.90444 521.35159 230.41768 521.49219 231.10156 C 521.63279 231.95642 522.12518 232.12619 522.96875 231.61328 C 526.48366 230.07454 529.71743 228.87829 532.66992 228.02344 C 535.62244 227.16858 538.22313 226.31384 540.47266 225.45898 C 542.72221 224.60413 544.68982 223.57766 546.37695 222.38086 C 548.06408 221.35503 549.40058 219.81728 550.38477 217.76562 C 555.44621 207.16541 560.15522 196.48016 564.51367 185.70898 C 568.87212 174.9378 573.72374 163.4827 579.06641 151.34375 C 582.72186 143.13714 586.37577 134.84438 590.03125 126.4668 C 593.68676 118.26018 597.55361 109.96743 601.63086 101.58984 C 604.02101 101.07693 606.41066 100.56369 608.80078 100.05078 C 611.1909 99.537867 614.00459 98.854856 617.23828 98 C 626.51763 95.435434 635.37482 91.418343 643.81055 85.947266 C 648.83922 82.639085 653.67248 78.322316 658.31445 73.015625 C 656.87719 76.356623 655.57332 79.643205 654.41992 82.869141 C 653.01396 86.630506 652.3125 89.623079 652.3125 91.845703 C 652.3125 93.726386 652.5919 95.26414 653.1543 96.460938 C 653.85726 97.486764 654.63102 98.341505 655.47461 99.025391 C 656.45875 99.709286 657.51388 100.13763 658.63867 100.30859 C 659.76343 100.47955 660.74823 100.56445 661.5918 100.56445 C 663.98192 100.56445 666.65295 99.966329 669.60547 98.769531 C 672.55799 97.572734 675.44004 95.863252 678.25195 93.640625 C 681.90744 90.734115 685.91499 86.886799 690.27344 82.099609 C 694.63189 77.312417 698.49678 72.268857 701.87109 66.96875 C 702.15229 66.113894 702.22263 65.515772 702.08203 65.173828 C 702.08203 64.660916 701.73034 64.832644 701.02734 65.6875 C 699.48081 68.252066 697.30215 71.329527 694.49023 74.919922 C 691.67832 78.510317 688.58522 81.929283 685.21094 85.177734 C 681.97725 88.426185 678.67314 91.247028 675.29883 93.640625 C 671.92454 95.863249 668.83145 96.974609 666.01953 96.974609 C 664.47297 96.974609 663.20877 96.546262 662.22461 95.691406 C 661.38102 94.665579 660.95898 93.127825 660.95898 91.076172 C 660.95898 89.195489 661.38102 86.631264 662.22461 83.382812 C 663.20877 80.134359 664.47297 76.628551 666.01953 72.867188 C 667.56609 68.934851 669.2543 64.917763 671.08203 60.814453 C 673.05038 56.711146 674.94766 52.948719 676.77539 49.529297 C 677.05659 49.187353 677.2676 48.674117 677.4082 47.990234 C 677.6894 47.306349 677.83008 46.795066 677.83008 46.453125 C 677.83008 45.94021 677.47838 45.683594 676.77539 45.683594 C 676.213 45.683594 675.01718 46.196829 673.18945 47.222656 C 671.5023 48.077512 670.30844 49.186919 669.60547 50.554688 C 668.48071 52.43537 666.93317 55.258166 664.96484 59.019531 C 663.65305 61.719087 662.26311 64.610638 660.87891 67.486328 C 658.09752 71.08683 655.22188 74.256679 652.24609 76.970703 C 647.18465 81.415954 642.12199 85.006651 637.06055 87.742188 C 631.9991 90.306756 627.07907 92.187968 622.29883 93.384766 C 617.65916 94.410592 613.44061 95.178492 609.64453 95.691406 C 616.81492 91.588099 622.79007 87.142661 627.57031 82.355469 C 632.35056 77.568276 636.14707 72.953064 638.95898 68.507812 C 641.9115 64.062564 643.95141 60.045473 645.07617 56.455078 C 646.34153 52.864686 646.97266 50.213618 646.97266 48.503906 C 646.97266 46.110309 646.48224 44.400827 645.49805 43.375 C 644.65448 42.349173 643.52901 41.835938 642.12305 41.835938 C 640.71709 41.835938 639.16955 42.434059 637.48242 43.630859 C 635.79527 44.656686 634.10901 46.024665 632.42188 47.734375 C 630.73469 49.444087 629.04651 51.3253 627.35938 53.376953 C 625.67222 55.428607 624.12666 57.394708 622.7207 59.275391 C 624.54846 55.855969 626.30506 52.693619 627.99219 49.787109 C 629.81994 46.8806 631.71915 44.057805 633.6875 41.322266 C 635.65583 38.415757 637.76415 35.510025 640.01367 32.603516 C 642.26322 29.526035 644.86391 26.363686 647.81641 23.115234 C 648.3788 22.43135 648.66016 21.833226 648.66016 21.320312 C 648.66016 20.97837 648.44911 20.806641 648.02734 20.806641 z M 845.49023 45.939453 L 845.70117 46.195312 C 844.01404 49.785707 842.11674 53.889638 840.00781 58.505859 C 837.89886 63.122079 835.71827 67.48263 833.46875 71.585938 C 831.50042 75.176332 829.32179 78.508457 826.93164 81.585938 C 824.68212 84.663418 822.43312 87.399371 820.18359 89.792969 C 817.93407 92.015593 815.89416 93.811919 814.06641 95.179688 C 812.37928 96.547458 811.11505 97.230469 810.27148 97.230469 C 809.42789 97.230469 809.00586 96.547458 809.00586 95.179688 C 809.00586 92.615122 809.99066 88.596078 811.95898 83.125 C 814.06791 77.653925 816.80928 72.183968 820.18359 66.712891 C 823.55788 61.070842 827.42277 56.197057 831.78125 52.09375 C 836.1397 47.990443 840.70996 45.939453 845.49023 45.939453 z M 345.125 46.708984 C 347.23394 46.708984 349.41452 47.135378 351.66406 47.990234 C 353.91359 48.674117 355.88122 50.385555 357.56836 53.121094 C 356.5842 55.001777 355.31803 57.650891 353.77148 61.070312 C 352.22491 64.318764 350.53867 67.824572 348.71094 71.585938 C 346.88319 75.347303 345.12659 79.107775 343.43945 82.869141 C 341.7523 86.630506 340.27513 89.964584 339.00977 92.871094 C 336.61964 94.238862 333.73758 95.521953 330.36328 96.71875 C 326.98899 97.744577 323.8959 98.255859 321.08398 98.255859 C 319.25624 98.255859 317.42735 97.829465 315.59961 96.974609 C 313.91246 95.948783 313.07031 93.982681 313.07031 91.076172 C 313.07031 88.511606 313.70339 85.177526 314.96875 81.074219 C 316.23411 76.970909 317.70934 72.78209 319.39648 68.507812 C 321.22423 64.233535 322.98278 60.214491 324.66992 56.453125 C 326.49767 52.520789 327.90255 49.530169 328.88672 47.478516 C 331.27684 47.307535 333.94788 47.135804 336.90039 46.964844 C 339.99349 46.793883 342.73488 46.708984 345.125 46.708984 z M 423.15625 47.478516 C 425.2652 47.478516 427.02178 48.333257 428.42773 50.042969 C 429.83369 51.581708 430.53711 53.291192 430.53711 55.171875 C 430.53711 56.197702 430.25575 57.137331 429.69336 57.992188 C 428.84979 59.359958 427.44489 60.899665 425.47656 62.609375 C 423.64881 64.148116 421.53856 65.857598 419.14844 67.738281 C 416.89889 69.447993 414.50924 71.157478 411.97852 72.867188 L 404.80859 77.226562 C 406.07395 71.755487 407.54917 67.140272 409.23633 63.378906 C 410.92348 59.617541 412.6117 56.624968 414.29883 54.402344 C 415.98596 52.008746 417.60185 50.299264 419.14844 49.273438 C 420.83557 48.07664 422.17209 47.478516 423.15625 47.478516 z M 635.79688 49.529297 C 637.06224 49.529297 637.7637 50.042533 637.9043 51.068359 C 638.18547 52.094186 638.32617 52.94893 638.32617 53.632812 C 638.32617 56.368351 637.41367 59.87416 635.58594 64.148438 C 633.75818 68.422718 631.2259 72.696425 627.99219 76.970703 C 624.8991 81.244981 621.24522 85.177183 617.02734 88.767578 C 612.95009 92.357973 608.59082 94.922199 603.95117 96.460938 C 606.2007 91.502774 608.44969 86.715829 610.69922 82.099609 C 612.94874 77.312417 615.27001 72.866979 617.66016 68.763672 C 619.34729 65.857162 621.10389 63.208051 622.93164 60.814453 C 624.75937 58.420858 626.51597 56.454757 628.20312 54.916016 C 629.89026 53.206303 631.36745 51.923213 632.63281 51.068359 C 634.03877 50.042533 635.09388 49.529297 635.79688 49.529297 z M 732.08203 53.376953 C 732.9256 53.376953 733.34766 54.059964 733.34766 55.427734 C 733.34766 56.282588 733.06627 57.735456 732.50391 59.787109 C 731.94154 61.667792 731.23812 63.805621 730.39453 66.199219 C 729.69156 68.421843 728.91781 70.644563 728.07422 72.867188 C 727.23065 75.089814 726.45885 76.886138 725.75586 78.253906 C 722.10038 79.963618 718.37418 81.673103 714.57812 83.382812 C 710.92262 84.921554 707.33715 86.459305 703.82227 87.998047 C 705.36882 84.578623 707.47714 80.90304 710.14844 76.970703 C 712.81978 72.867396 715.56115 69.106924 718.37305 65.6875 C 721.18496 62.268078 723.85795 59.360392 726.38867 56.966797 C 728.91939 54.573199 730.81667 53.376953 732.08203 53.376953 z M 724.49023 80.818359 C 722.66248 84.921666 720.83359 88.340633 719.00586 91.076172 C 717.17811 93.640738 715.42151 95.606839 713.73438 96.974609 C 712.04722 98.342378 710.49971 99.28201 709.09375 99.794922 C 707.68779 100.30784 706.49393 100.56445 705.50977 100.56445 C 704.10381 100.56445 702.83765 100.13806 701.71289 99.283203 C 700.58813 98.257376 700.02539 97.059174 700.02539 95.691406 C 700.02539 94.665579 700.23641 93.72595 700.6582 92.871094 C 701.22057 91.845267 701.85365 90.990526 702.55664 90.306641 C 706.21212 88.767902 709.86795 87.228195 713.52344 85.689453 C 717.31952 84.150712 720.97535 82.528069 724.49023 80.818359 z "
       transform="scale(0.26458333)" />
  </g>
</svg>
